<?xml version="1.0" encoding="UTF-8"?><!DOCTYPE svg PUBLIC "-//W3C//DTD SVG 1.1//EN" "http://www.w3.org/Graphics/SVG/1.1/DTD/svg11.dtd"><!-- Creator: CorelDRAW --><svg xmlns="http://www.w3.org/2000/svg" xml:space="preserve" width="2.54mm" height="5.012mm" style="shape-rendering:geometricPrecision; text-rendering:geometricPrecision; image-rendering:optimizeQuality; fill-rule:evenodd; clip-rule:evenodd"viewBox="0 0 2.54 5.012" xmlns:xlink="http://www.w3.org/1999/xlink" version="1.0" enable-background="new 0 0 8.672 18.944"> <defs>  <style type="text/css">   <![CDATA[    .fil0 {fill:white}   ]]>  </style> </defs> <g id="Layer_x0020_1">  <metadata id="CorelCorpID_0Corel-Layer"/>  <path class="fil0" d="M1.783 0.8878c0.2114,0 0.4231,0 0.6345,0 0,-0.2961 0,-0.5919 0,-0.8879 -0.2537,0 -0.508,0 -0.7615,0 -0.8305,0.0479 -1.1258,0.6315 -1.0178,1.6176l-0.5154 0 0 0.9308 0.5183 0c0,0.8213 0,1.6425 0,2.4638 0.3384,0 0.6771,0 1.0152,0 0,-0.8213 0,-1.6425 0,-2.4638l0.7559 0 0 -0.9308 -0.7583 0c-0.0058,-0.2765 -0.0098,-0.6363 0.1291,-0.7297z"/> </g></svg>