<?xml version="1.0" encoding="utf-8"?><!-- Generator: Adobe Illustrator 16.0.0, SVG Export Plug-In . SVG Version: 6.00 Build 0)  --><!DOCTYPE svg PUBLIC "-//W3C//DTD SVG 1.1//EN" "http://www.w3.org/Graphics/SVG/1.1/DTD/svg11.dtd"><svg version="1.1" id="Layer_1" xmlns="http://www.w3.org/2000/svg" xmlns:xlink="http://www.w3.org/1999/xlink" x="0px" y="0px"	 width="13.125px" height="10.996px" viewBox="0 0 13.125 10.996" enable-background="new 0 0 13.125 10.996" xml:space="preserve"><g id="Layer_x0020_1">	<g id="W6EeEF_1_"><g><path id="_235828360" fill="#FFFFFF" d="M8.462,0.114c1.303-0.363,2.306,0.198,2.764,0.862c0.521-0.168,1.029-0.353,1.555-0.518	c-0.004,0.631-0.403,1.108-0.662,1.296c0.527,0.124,1.007-0.36,1.007-0.36c-0.131,0.732-0.776,1.31-1.208,1.482c-0.18,4.944-2.454,8.218-7.787,8.117c-0.403,0,0.059,0-0.345,0c-0.316,0-3.218-0.337-3.785-1.382C1.756,9.756,3.008,9.303,3.626,8.75c-0.741-0.22-2.07-0.349-2.302-2.161C1.595,6.668,1.76,6.756,2.245,6.677C1.317,6.05,0.289,5.523,0.345,3.913c0.221,0.239,0.825,0.393,1.036,0.346C0.838,4.082-0.141,1.798,0.69,0.632c1.405,1.359,2.887,2.641,5.527,2.764C6.379,1.716,7.095,0.591,8.462,0.114L8.462,0.114z"/></g></g></g></svg>