<?xml version="1.0" encoding="UTF-8"?><!DOCTYPE svg PUBLIC "-//W3C//DTD SVG 1.1//EN" "http://www.w3.org/Graphics/SVG/1.1/DTD/svg11.dtd"><!-- Creator: CorelDRAW --><svg xmlns="http://www.w3.org/2000/svg" xml:space="preserve" width="4.63mm" height="3.879mm" style="shape-rendering:geometricPrecision; text-rendering:geometricPrecision; image-rendering:optimizeQuality; fill-rule:evenodd; clip-rule:evenodd"viewBox="0 0 4.63 3.879" xmlns:xlink="http://www.w3.org/1999/xlink" version="1.0" enable-background="new 0 0 17.5 14.663"> <defs>  <style type="text/css">   <![CDATA[    .fil0 {fill:#88B6D1}   ]]>  </style> </defs> <g id="Layer_x0020_1">  <metadata id="CorelCorpID_0Corel-Layer"/>  <g id="W6EeEF_1_">   <g>    <path id="_235828360" class="fil0" d="M2.9852 0.0402c0.4593,-0.1281 0.8133,0.0699 0.975,0.3043 0.1836,-0.0595 0.363,-0.1244 0.5482,-0.1826 -0.0011,0.2225 -0.1423,0.3911 -0.2336,0.4572 0.1862,0.0437 0.3553,-0.1273 0.3553,-0.1273 -0.0463,0.2585 -0.2738,0.462 -0.4262,0.5231 -0.0633,1.7441 -0.8658,2.8988 -2.7469,2.8636 -0.1423,0 0.0204,0 -0.1217,0 -0.1117,0 -1.1351,-0.1191 -1.3354,-0.4876 0.6194,0.0508 1.0612,-0.109 1.2793,-0.3043 -0.2617,-0.0775 -0.7305,-0.1228 -0.8123,-0.7623 0.0958,0.0278 0.1543,0.059 0.3249,0.031 -0.327,-0.2212 -0.69,-0.4067 -0.6699,-0.975 0.0778,0.0844 0.291,0.1384 0.3654,0.122 -0.1918,-0.0622 -0.5371,-0.8681 -0.2437,-1.2795 0.4955,0.4794 1.0181,0.9315 1.9497,0.9749 0.0571,-0.5926 0.3098,-0.9895 0.7919,-1.1575z"/>   </g>  </g> </g></svg>